<?xml version="1.0" encoding="UTF-8"?><svg id="a" xmlns="http://www.w3.org/2000/svg" viewBox="0 0 800 600.7"><path d="M396.91,553.11c-53.88-.71-105.2-17.52-149.93-52.74-42.99-33.86-71.68-77.38-85.28-130.55-6.27-24.53-8.37-49.49-6.19-74.71,4.27-49.41,22.14-93.43,53.55-131.8,34.31-41.92,77.77-69.77,130.2-83.53,24.08-6.32,48.62-8.93,73.42-7.34,53.24,3.4,100.77,21.94,142.1,55.7,39.8,32.51,66.64,73.73,80.52,123.23,7.1,25.33,9.87,51.22,7.98,77.46-3.9,54.09-24.16,101.46-60.17,141.86-36.27,40.69-81.5,66.28-134.82,77.49-15.97,3.36-32.17,4.81-51.38,4.92Zm3.03-462.5c-5.24,.31-13.28,.56-21.27,1.28-27.94,2.51-54.7,9.66-79.52,22.7-67.52,35.48-109.5,90.21-122.99,165.83-4.87,27.31-3.73,54.56,2.78,81.5,10.97,45.36,33.9,83.67,68.77,114.71,39.83,35.45,86.64,54.16,139.68,57.39,17.57,1.07,35.07-.12,52.45-3.32,41.98-7.72,79.13-25.58,110.88-53.92,42.09-37.56,66.63-84.61,73.16-140.78,2.91-25.09,.98-49.95-5.24-74.41-11.91-46.91-36.38-86.13-73.4-117.27-41.12-34.59-88.95-51.77-145.29-53.7Z"/><path d="M367.13,263.48c.47,.5,1.18,.91,1.38,1.5,3,8.87,.25,16.77-7.6,22-.55,.37-1.07,.78-1.7,1.24,15.54,5.86,23.05,11.58,33.21,25.36-1.63-9.26-.1-18.14,1.03-27.05,1.33-10.39,.82-20.6-3.3-30.4-3.09-7.34-7.94-13.59-15.46-16.09-15.72-5.24-26.61-16.85-38.56-27.2-2.99-2.59-6.3-4.81-9.48-7.18-6.48-4.81-13.56-6.24-21.62-4.91-5.63,.93-11.11,1.25-16.31,4.37-8.93,5.37-17.59,4.13-25.35-2.97-3.65-3.34-8.15-4.88-13-5.16-1.13-.07-2.58,.74-3.45,1.59-1.76,1.72-3.06,3.94-4.84,5.63-6.53,6.17-14.5,6.75-24.17,1.82,4.48-4.61,8.8-9.25,15.6-10.08,1.36-.16,2.76,.04,4.14,.04,2.67,0,5.43,.43,7.98-.12,4.42-.95,8.73-1.66,13.36,.05-4.94-15.25-2.26-29.33,4.57-43.2,3.37,7.86,4.19,15.12-1.76,22.13-4.88,5.74-3.67,16.29,2.33,22.43,7.24,7.4,14.45,10.12,27.28,.94-.36-3.29-.69-6.3-1.02-9.32l.83-.61c4.23,6.94,9.84,10.18,17.73,7.02-9.16-7.86-18.42-15.81-27.19-23.34-1.37-.2-2.49-.04-3.14-.51-5.35-3.89-6.29-8.12-3.35-14.71,3.36,3.09,6.81,5.98,6.57,11.22-.04,.77,1.12,1.8,1.95,2.39,8.26,5.84,16.46,11.77,24.89,17.34,5.27,3.48,10.92,6.4,16.69,9.75,.6-1.42,1.08-2.44,1.46-3.49,2.33-6.55,6.04-12.24,10.66-17.37,3.66-4.07,8.29-6,13.74-6,3.14,0,6.28,0,10.33,0-7.81-5.98-12.07-13.66-16.73-21.1-3-4.8-8.17-6.07-14.32-4.18-.29,4.27,1.46,9.16-2.3,12.64-3.18,2.94-6.84,5.35-10.33,8.02-1.49-6.21,.93-13.04,6.23-17.82,6.91-6.23,11.34-7.11,20.35-3.84-2.37-8.43,.66-16.44,1.06-24.6,.32-6.47,3.93-11.02,8.76-14.79,2.68,6.63,1,14.42-4.83,18.34-5.84,3.93-4.82,9.47-3.56,14.39,3.44,13.43,11.25,23.67,24.32,29.31,2.14,.93,4.33,1.75,7.06,2.84-.47-1.26-.66-1.98-.99-2.62-3.14-6.11-4.46-12.56-4.69-19.45-.15-4.36-1.64-8.69-2.65-13.01-.15-.64-.82-1.39-1.44-1.66-6.05-2.66-8.09-7.51-7.65-13.75,.14-2.05,.41-4.09,.64-6.29,1.84,1.71,3.87,3.08,5.17,4.95,1.35,1.94,2.6,4.3,2.83,6.59,.43,4.27-.34,8.66,3.4,12.07,1.06,.97,1.33,2.8,1.79,3.86,5.94-5.95,11.89-12.06,18.02-18,2.42-2.35,3.21-5.07,3.24-8.28,.03-3.63,1.42-6.7,4.24-9.09,4.24,4.67,3.52,10.23-1.5,13.85-1.71,1.24-3.14,2.9-4.57,4.49-3.57,3.98-6.99,8.1-10.61,12.04-4.41,4.79-7.63,10.16-6.5,16.84,.68,4.03,2.21,8.03,4.01,11.72,3.21,6.55,8.02,11.95,13.85,16.97-.2-7.5,2.3-13.61,7.66-18.45,4.27-3.86,9.27-6.09,15.07-6.17,8.95-.13,18.17,8.2,18.64,14.63-4.5,1.93-9.28,.47-10.32-4.09-2.12-9.35-9.05-8.91-15.67-5.52-10.36,5.31-13.4,14.17-8.47,24.65,.97,2.06,2.09,4.07,3.36,5.95,5.05,7.47,8.48,15.41,7.51,25.07,2.62-3.63,4.72-7.07,7.35-10.06,5.18-5.88,11-11.22,15.91-17.3,10.09-12.48,10.51-29.02,1.65-42.38-2.64-3.98-6.26-6.55-10.82-7.85-3.88-1.11-6.55-.24-8.64,3.24-1.26,2.1-2.08,4.48-3.05,6.75-.52,1.22-.95,2.49-1.86,3.6,.64-2.56,1.17-5.16,1.93-7.68,2.27-7.45,6.17-9.66,14.16-7.98-3.03-5.14-5.49-10.55-9.09-15.05-3.62-4.51-6-9-5.31-14.8,4.29,.96,7.91,4.54,7.75,8.94-.21,5.55,2.34,9.2,5.8,13.21,5.87,6.8,11.15,14.18,16.13,21.68,3.79,5.71,5.18,12.37,4.7,19.7,2.52-1.92,4.26-3.8,4.04-6.92-.15-2.18-.12-4.37-.26-6.55-.49-7.43,2.55-13.29,8.61-17.21,5.05-3.26,10.47-6.05,16.01-8.39,2.89-1.22,6.37-1.21,9.6-1.41,3.55-.22,7.13-.05,10.85-.05-4.4,5.91-14.95,9.99-21.49,7.69-5.29-1.86-9.02-.43-12.88,3.07-6.44,5.85-9.2,15.32-5.87,24.04,2.73-4.71,5.1-8.8,7.45-12.86-.72,2.01-1.22,4.33-2.33,6.31-2.41,4.3-4.66,8.85-7.88,12.5-3.32,3.76-5.18,7.84-6.64,12.5-.84,2.69-3.14,4.95-4.91,7.3-.99,1.32-2.24,2.43-3.76,4.05,9.76-3.59,19.51-3.27,29.18-3.82,7.63-.43,14.29-3.29,18.79-9.88,3.7-5.42,4.23-11.18,1.39-17.17-.45-.96-.92-1.91-1.54-3.2,4.8,4.1,6.08,8.6,5.58,19.14,5.03-2.8,10.38-3.16,15.85-3.38,5.27-.21,8.73-3.35,10.45-8.35,.38-1.11,.82-2.21,1.4-3.22-.6,5.37-2.29,10.16-7.07,12.69,4.7,4.23,9.34,8.42,13.99,12.61l-.74,.93c-1.04-.76-2.06-1.55-3.12-2.29-3.08-2.16-6.02-4.58-9.3-6.38-7.6-4.19-14.59-3.29-21.13,2.4-1.65,1.43-3.27,2.91-4.78,4.48-7.57,7.81-17.06,11.19-27.61,12.41-4.31,.5-8.69,1.13-12.82,2.4-13.81,4.25-21.52,14.03-23.75,28.05-1.92,12.06-1.22,24.19,.75,36.17,1.56,9.5,.47,18.15-5.71,25.82-.16,.2-.19,.49-.44,1.18,3.09-2.63,5.82-4.98,8.57-7.3,9.83-8.27,21.42-11.6,34-12.47,8.59-.6,17.33-.77,25.68-2.61,10.03-2.21,17.49-8.41,20.1-18.96,1.47-5.97,.06-11.26-4.32-15.87-3.88-4.08-7.68-8.32-10.87-12.94-1.94-2.82-3.21-6.4-3.78-9.81-.92-5.55-2.66-10.52-6.7-14.67,8.88,1.59,16.33,10.01,16.62,18.63,.04,1.09,.13,2.19,.08,3.28-.28,5.39,.58,10.11,6.16,12.79,1.69,.81,2.93,2.55,4.3,3.8,.35-2.19,.54-4.65,1.16-6.99,2.67-9.91,10.29-14,19.43-16.19,4.13-.99,8.3-1.86,12.42-2.92,10.52-2.73,15.38-12.59,13.87-22.52-1.02-6.74-.06-10.91,4.12-16.44,3.89,2.46,5.9,8.51,4.09,13.33-.82,2.18-2.17,4.23-3.61,6.07-1.49,1.91-2.52,3.76-2.85,6.29-1.37,10.4-8.33,17.3-19.43,19.67-3.77,.8-7.59,1.44-11.33,2.35-9.7,2.35-13.99,9.35-12.8,19.29,.71,5.94,.46,12.02,.34,18.04-.04,1.98-1.05,3.94-1.63,5.97,1.76-1.67,3.38-3.34,5.13-4.86,5.76-4.98,12.94-6.09,20.08-7.34,3.31-.58,6.6-1.32,9.84-2.19,5.42-1.46,8.46-5.13,9.58-10.6,1.65-8.04,6.71-13.75,13.11-18.37,3.39-2.45,7.45-2.7,11.44-2.04,4.99,.82,9.31,3.21,13.32,6.71-8.18-1.31-13.79,5.35-21.16,6.38-3.82,.54-7.7,.69-11.55,.94-1.62,.1-2.41,.77-2.12,2.43,2.41,13.92-8.21,21.26-19.49,23.25-3.9,.69-7.79,1.43-11.64,2.34-4.23,1-7.39,3.49-9.85,7.14-1.96,2.9-4.44,5.46-6.81,8.31,5.88,.13,11.86,.54,15.92,5.77,2.05,2.65,2.79,5.77,2.61,9.07l-.86,.42c-1.27-2.36-2.9-4.6-3.71-7.1-1.08-3.32-3.09-5.11-6.42-5.09-3.53,.02-7.25-.18-10.55,.84-6.96,2.14-13.69,5.01-20.26,7.49,.63,.22,1.78,.62,2.94,1.01,12.21,4.06,21.03,12.4,28.51,22.46,3.34,4.5,7.79,6.97,13.44,6.98,5.56,.01,9.61-3.14,11.19-8.47,.61-2.08,1.08-4.27,2.09-6.16,2.81-5.23,9.5-6.23,13.96-2.44-2.15,.51-4.48,.86-6.67,1.62-2.67,.93-4.51,2.91-5.18,5.71-1.14,4.73-2.18,9.48-6.67,12.93,7.25,1.72,12.91,4.92,17.72,9.74,2.43,2.44,5.78,2.57,8.96,2.23,5.29-.57,10.4-.43,15.58,1.17,2.96,.92,6.29,.56,9.44,.92,4.6,.52,7.78,3.62,8.56,8.44-4.19,.14-8.77,.63-11.59-2.79-4.48-5.42-9.76-6.36-16.16-5.1-3.17,.62-6.46,.61-9.52,.86,1.62,10.38,9.57,12.25,18.17,13.55,3.67,.55,7.47,1.4,10.77,3.02,7.01,3.43,9.55,9.83,10.15,16.94-4.77-2.38-9.67-4.5-14.2-7.23-2.73-1.64-5.32-3.92-7.19-6.48-2.64-3.62-5.59-5.75-10.18-5.24-1.26,.14-2.55,.02-4.21,.02-.37,8.09-5.33,14.06-9.46,20.6-2.49,3.94-3.45,8.97-4.51,13.64-.34,1.49,1.05,3.51,1.95,5.13,4.17,7.46,2.77,14.24-2.25,20.68-6.91-4.88-8.72-13.85-4.05-21.01,1.97-3.02,3.46-5.76,3.2-9.73-.32-5.01,2.27-9.49,4.61-13.92,2.02-3.82,4.18-7.77,5.06-11.92,1.54-7.26-1.42-13.46-6.64-18.5-5.16-4.98-11.36-7.83-18.57-8.47-3.8-.34-7.58-.89-11.42-1.34,.62,1.99,1.57,4.33,2.09,6.77,2.72,12.87-3.59,24.07-16.02,28.51-1.95,.69-3.98,1.29-6.01,1.55-3.62,.45-6.77,1.66-9.77,3.84-6.79,4.94-14.23,6.45-22.53,4.15-3.55-.98-7.39-.89-10.95-1.26,6.72-10.21,19.73-14.32,31.64-9,7.37,3.29,13.5,1.53,19.41-2.71,6.8-4.87,9.44-13.76,6.85-22.71-3.45-11.93-11.27-20.55-21.33-27.32-3.09-2.08-6.45-3.76-9.29-5.39-2.11,7.56-3.92,14.93-6.26,22.11-1.69,5.17-5.8,8.25-10.92,10.43-.61-6.43,1.35-11.13,6.88-14.25,5.82-3.28,8.14-9.64,6.35-16.14-.8-2.92-2.79-4.52-5.41-5.45-10.97-3.89-21.27-2.75-30.64,4.42-14.19,10.86-21.88,25.44-23.71,43.03-2.02,19.45-.46,38.64,5.86,57.26,3.16,9.31,8.21,17.5,15.07,24.66,5.33,5.57,11.98,7.39,19.2,8.29,8.26,1.02,16.37,2.73,22.63,8.68,3.35,3.18,6.4,6.82,8.99,10.65,2.54,3.75,5.7,4.83,9.9,4.4,2.75-.28,5.65-.71,8.28-.13,2.57,.57,5.33,1.87,7.2,3.68,3.89,3.77,7.97,4.17,12.48,1.9,5.83-2.94,11.54-6.14,17.31-9.2,1.18-.63,2.43-1.13,3.65-1.69,.12,.22,.24,.45,.36,.67-7.59,4.75-15.05,9.71-22.81,14.16-4.22,2.42-8.83,1.38-12.1-1.94-5.72-5.81-11.55-3.16-18.39-1.16,1.63,1.02,2.57,1.98,3.67,2.25,5.94,1.46,11.89,2.96,17.91,4.02,4.71,.83,8.92-1.12,12.95-3.46,3.81-2.21,7.75-4.21,11.76-6.07-10.89,9.16-22.26,16.97-37.81,11.41l-.02,1.08c1.49,.7,2.95,1.45,4.46,2.08,1.52,.63,3.1,1.14,4.59,1.89-6.74,.68-13.04-.26-18.42-4.82-1.81-1.54-3.58-3.15-5.5-4.55-.87-.63-2.05-.83-3.59-.64,2.59,4.79,5.18,9.57,7.78,14.36-6.84-4.12-11.28-10.04-14.71-16.82-2.38-4.7-4.8-9.48-9.39-12.44-2.59-1.67-5.55-2.77-8.68-3.78,3.33,6.27,3.9,12.93,4.66,19.55,.43,3.8,2.77,6.01,6.24,7.18,5.34,1.8,10.72,3.48,16.02,5.39,1.86,.67,3.53,1.87,5.1,3.12l-10.98-2.55c1.56,8.11,6.94,10.29,19.46,8.34-5.08,3.91-13.56,3.76-18.73-.38-1.24-.99-2.43-2.07-3.48-3.25-3.32-3.79-7.45-5.02-13.17-4.02,1.91,3.39,3.69,6.54,5.47,9.69l-.4,.53c-2.39-2.32-5.21-4.34-7.06-7.02-2.1-3.04-3.99-6.05-7.22-8.05-1.2-.75-2.03-2.1-2.88-3.01-3.12,3.91-6.19,7.76-9.26,11.6l-.72-.45c.44-.83,.74-1.76,1.33-2.46,11.07-13.31,4.61-25.43-4.27-33.84-4.53-4.29-9.83-7.37-16.03-8.65-6.99-1.44-11.09,2.38-9.93,9.41,1.34,8.08,5.51,14.36,13.27,17.33,6.09,2.33,9.59,6.16,10.74,12.56,1.17,6.51,5.12,10.13,11.57,12.47,7.55,2.74,14.88,3.24,22.62,2.1,3.74-.55,7.25,.39,10.72,3.24-9.7-3.3-18.15-2.49-25.84,4.39-2.47-4.64-7.56-4.71-12.26-5.77-3.78-.86-7.49-2.06-11.43-3.16-.52,3.06,.38,6.38,2.77,9.6-3.42-1.72-5.85-5.28-6.49-9.49-.31-2.05-.6-4.15-.54-6.22,.2-6.04-2.68-10.22-7.67-13.13-2.56-1.49-5.41-2.53-7.89-4.14-2.46-1.59-4.61-3.65-7.09-5.65-1.78,1.69-1.94,4.21-.99,6.29,1.58,3.44,3.68,6.68,5.8,9.84,2.36,3.51,5.85,6.5,7.35,10.31,3.5,8.92,10.03,13.31,18.92,15.33,10.79,2.45,21.26,1.23,31.63-2.11,3.57-1.15,7.17-2.16,10.83-3.05-7.1,3.89-14.48,7.09-22.38,9-10.44,2.53-20.66,1.76-30.62-2.17-4.98-1.96-9.18-5.08-13.16-9.36,.33,5.03,.32,10.12,1.12,15.07,.62,3.85,4.23,5.48,8.11,7.27-8.57-.78-12.89-5.1-12.47-12.71,.47-8.48-2.27-15.45-7.9-21.67-4.77-5.27-9.2-10.87-10.89-18.14-7.39,7.44-8.04,17.97-1.18,25.8,4.33,4.94,6.48,10.55,7.32,16.86,.1,.76,.01,1.54,.01,2.32l-.77,.36c-1.89-3.48-4-6.86-5.61-10.47-1.24-2.76-2.81-4.93-5.1-5.94-1.46,3.27-2.79,6.45-4.27,9.56-1.95,4.1-1.09,8.37,2.93,10.56,2.79,1.52,6.09,2.13,9.17,3.09,1.01,.31,2.08,.44,3.13,.65l-.15,.91c-4.5-.72-9.15-.97-13.48-2.28-7.06-2.15-10.37-8.56-8.62-15.74,.65-2.67,1.99-5.17,2.67-7.84,.41-1.6,.78-3.72,.08-5.02-5.24-9.71-3.47-18.72,2.17-27.5,.96-1.5,2.13-2.93,2.8-4.55,.64-1.54,.76-3.29,.65-5.22-3.02,7.12-10.38,8.56-15.56,12.7-3.82,3.06-7.38,6.61-10.37,10.47-2.88,3.72-2.68,8.2-.37,12.36,1.3,2.34,2.79,4.57,4.18,6.85,2.69,4.41,2.38,6.2-1.64,9.33-.23,.18-.48,.35-.71,.54-4.5,3.54-4.63,6.63-.46,10.53,.58,.54,1.15,1.08,1.52,1.84-2.96-1.44-5.75-3.24-6.59-6.65-.7-2.85,1.27-4.8,3.28-6.54,4.57-3.98,4.59-4.26,.85-9.1-1.37-1.77-2.75-3.54-4.22-5.44-3.72,16.46-13.1,22.61-22.44,14.92,10.4,.62,14.95-3.42,15.75-14.16,.19-2.55,.29-5.19-.1-7.7-.73-4.62-.13-8.87,2.46-12.86-3.98,.17-9.42,4.19-9.95,8.3-.56,4.38-.02,8.9,.03,12.72-3.26-4.4-4.53-10.13-3.61-16.45-8.04,3.16-10.7,11.79-6.89,21.98-5.25-3.41-6.6-14.09-1.69-19.5,1.33-1.46,2.68-3.02,4.32-4.07,7.91-5.06,15.99-9.86,23.86-14.97,3.71-2.41,7.3-5.1,10.57-8.07,2.78-2.54,3.29-5.96,1.7-9.7-7.11,.79-14.33,.46-20.97,3.62-6.19,2.95-11.02,7.45-14.34,13.4-3.26,5.83-6.24,11.82-9.6,18.23,.56-3.76,1.06-7.12,1.55-10.45-4.72,2.49-9.63,5.08-15.33,8.08,1.04-1.6,1.55-2.75,2.38-3.58,1.61-1.6,3.26-3.26,5.16-4.47,7.57-4.83,12.12-12,16.03-20.18-8.53,2.98-15.93,7.1-21.23,14.33-1.23,1.68-2.23,3.52-3.43,5.22-2.64,3.76-4.01,7.47-1.58,12.08,1.03,1.96,1.02,4.65,.93,6.99-.21,5.2-.78,10.38-1.9,15.77-.61-2.68-1.51-5.33-1.76-8.04-.36-3.96-1.8-7.23-4.91-10.09-2.27,2.91-4.03,6.49-9.27,6.83,8.38-5.45,8.54-13.17,7.89-21.59-.72,.61-1.27,1.04-1.77,1.51-7.15,6.67-14.89,12.28-25.05,13.11-7.15,.58-13.47-1.47-18.59-6.75,11.55,7.07,22,3.06,32.01-3.37,4.11-2.64,7.73-6.03,11.24-9.68-5.61,0-11.22-.21-16.82,.06-5.53,.27-10.11,2.66-13.42,7.38l1.15-3.47c-1.45,0-2.74,.19-3.94-.04-1.81-.35-3.8-.63-5.31-1.57-5.12-3.18-10.07-6.65-15.07-10.01-.2-.13-.33-.36-.22-1.01,3.9,2.06,7.74,4.21,11.7,6.14,2.29,1.11,4.7,2.11,7.17,2.71,3.13,.75,6.06,.11,8.52-2.26,3.38-3.26,7.54-4.63,12.2-4.62,3.18,0,6.36,.03,9.53-.03,4.62-.09,8.67-1.62,11.28-5.57,5.3-8.01,12.77-12.53,21.84-15.41,13.52-4.3,25.44-11.49,35.13-22.07,9.05-9.88,13.73-21.64,14.96-34.88,1.15-12.34-.22-24.34-4.78-35.93-8.51-21.66-30.6-28.72-46.84-27.27,1.39,3.92,3.48,7.19,6.89,9.35,5.02,3.18,10.23,6.06,15.33,9.12,8.54,5.13,11.89,13.52,8.94,23.56-3.87-4.99-7.97-9.34-10.94-14.37-3.68-6.23-7.87-11.58-14.41-14.96-5.08-2.62-8.15-7.09-10.05-12.6-6.14,1.08-11.75,2.72-15.69,7.78-3.76,4.82-3.28,10.3,1.75,13.7,6.3,4.25,9.43,10.82,12.98,17.34-5.37-4.42-11.23-8.36-15.98-13.36-6.27-6.6-6.45-15.53-2.05-23.99-2.02,1.76-4.35,3.29-6,5.35-2.62,3.27-5.77,5.25-9.84,6.15-4.01,.89-7.69,2.5-10.64,5.56-4.92,5.11-5.09,11.37-4.57,17.82,.13,1.56,.54,3.1,.82,4.64-5.28-4.56-5.84-17.24-.97-26.81-8.29,1.57-16.44,2.64-24.32,4.71-12.08,3.17-18.47,12.05-19.48,24.41-.44,5.42-.19,9.59,5,12.86,3.5,2.2,4.19,6.37,3.22,10.45-.52,2.2-1.33,4.33-2.16,6.95-2.92-3.66-5.53-7.01-6.17-11.3-1.03-6.94-1.79-13.92-2.66-20.88-2-16.03,9.87-28.91,25.17-31.47,2.73-.46,5.48-.76,7.73-1.07-2.95-2.96-6.1-5.98-9.09-9.15-4.95-5.25-10.79-8.6-18.11-9.21-10.02-.84-17.86,5.62-19.89,17.21-.74,4.22-.12,8.67-.59,13.07-.42-3.38-.83-6.75-1.19-9.61-3.19,0-6.39,.73-8.99-.2-2.61-.93-4.62-3.52-6.98-5.45,5.36-3.79,9.75-2.93,15.94,2.82,4.25-17.96,11.33-24.43,25.93-23.15-5.66-4.97-8.3-11.16-10.29-17.87-1.21-4.09-5-5.82-9.06-6.18-3.32-.3-6.7-.06-9.8-.06,6.2-2.68,12.63-3.2,19.33,.83,.75-6.96,5.14-11.84,8.46-17.3,1.43-2.34,2.02-5.19,2.91-7.59,1.85,1.51,2.37,5,.5,8.12-1.02,1.69-2.34,3.19-3.5,4.8-4.82,6.67-5.93,13.67-1.97,21.18,2.96,5.62,6.84,10.39,12.08,14.09,4.13,2.92,8.18,5.96,12.07,9.19,6.75,5.61,14.39,7.57,22.78,5.28,3-.82,6.15-2.59,8.3-4.81,11.31-11.72,24.98-17.17,41.17-16.47,1.67,.07,3.33,.32,5.18,.05-2.64-1.23-5.27-2.5-7.92-3.69-18.04-8.14-36.18-16.07-54.1-24.45-14.94-6.98-27.89-16.94-40.34-27.69-2.35-2.03-6.64-2.13-10.09-2.39-1.24-.09-2.95,1.75-3.91,3.09-3.78,5.26-8.55,8.05-15.22,7.45-2.31-.21-4.69,.35-6.89,.55,2.98-6.33,8.9-10.34,15.93-10.82,2.66-.18,5.29-.78,7.94-1.1,3.49-.43,6.99-.77,10.59-1.17-.93-4.04-1.31-8.29,3.11-10.86,3.44-1.99,7.01-1.27,10.62,.51-2.51,4.8-6.56,3.78-10.79,3-1.18,9.38,7.08,11.5,11.53,16.88,.45-5.17,.86-9.78,1.26-14.38l.21,.14c.48,4.28,.65,8.63,1.58,12.81,.45,2.05,1.92,4.34,3.62,5.55,8.83,6.28,19,9.9,29.08,14.52-1.34-2.93-2.88-5.31-3.53-7.91-1.46-5.81,.24-10.98,4.26-15.37,2.54-2.78,5.49-5.25,7.7-8.26,2.2-2.99,3.7-6.49,5.42-9.6,.38,4.67-2.09,11.22-6.19,15.99-1.1,1.28-2.33,2.45-3.42,3.73-6.26,7.3-5.04,16.15,3.16,22.13,6.11,4.46,13.26,6.62,20.42,8.58,12.6,3.45,25.24,6.73,37.89,9.96,9.03,2.31,17.13-4.05,17.52-13.78,.09-2.32-.56-4.66-.86-7v.02Zm8.69-78.21c-2.53,1.31-4.8,2.49-7.07,3.66-4.55,2.35-9.16,4.59-13.62,7.11-1.57,.89-3.13,2.21-4.09,3.72-4.47,7.01-2.63,15.03,5.08,19.7,5.21,3.15,10.98,5.44,16.64,7.78,10.92,4.51,22.02,8.66,28.27,19.72,0-8.31,.44-16.52-.1-24.66-.84-12.74-5.07-24.44-13.24-34.41-6.35-7.76-13.97-13.18-24.78-12.11-3.04,.3-6.15-.14-9.23-.1-2.78,.03-5.59,0-8.32,.43-7.57,1.21-17.48,13.68-17.2,21.46,.02,.63,.23,1.48,.67,1.82,5.39,4.13,10.84,8.19,16.48,12.42,0-1.72-.05-3.17,0-4.61,.34-8.27,5.02-14.21,10.71-19.53,5.7-5.34,12.48-6.17,19.78-2.38Z"/><path d="M581.02,277.29c17.59,.59,27.96,10.93,27.65,28.59-8.43-4.81-17.13-8.87-21.25-18.59-1.56-3.68-4.34-6.85-6.39-10Z"/><path d="M251.78,389.15c1.65-3.07,3.01-5.69,4.46-8.27,2.62-4.67,6.74-7.58,11.43-9.98,3.33-1.7,6.39-3.95,9.53-5.92,.63,6.86,.09,14.2-5.48,19.99-5.44,5.66-12.4,5.73-19.93,4.17Z"/><path d="M454.24,336.65c-5.08-15.78,5.04-26.84,23.05-25.18-1.14,5.24-3.7,9.54-7.81,12.87-2.69,2.18-5.58,4.13-8.29,6.3-2.31,1.85-4.49,3.86-6.95,6Z"/><path d="M549.87,266.24c.76,4.93,2,9.85,2.18,14.81,.25,6.95-3.9,12.16-10.59,14.52-1.47,.52-3.01,.85-4.88,1.37-.53-6.41-.53-12.35,4.11-17.36,2.28-2.46,4.47-5.05,6.36-7.81,1.07-1.57,1.46-3.61,2.15-5.44l.67-.09Z"/><path d="M210.07,379.11c-1.66-3.72-3.59-6.82-4.42-10.19-1.35-5.5,.37-10.39,4.66-14.24,2.21-1.98,4.44-3.95,6.66-5.93,5.27,7,2.91,18.07-6.9,30.35Z"/><path d="M494.77,379.82c-4.18,6.53-8.4,12.44-15.24,16.2-3.87,2.13-7.06,5.48-10.36,8.13-.97-15.04,9.66-25.74,25.61-24.33Z"/><path d="M611.91,316.5c-8.86,12.96-18.79,16.88-33.44,10.4,5.44-3.98,10.06-8.99,17.24-9.36,2.06-.11,4.16,.35,6.22,.19,3.41-.27,6.8-.82,9.98-1.23Z"/><path d="M311.86,374.28c-5.65,5.05-13.83,5.6-20.05,1.48-5.43-3.59-8.84-8.98-12.45-14.28,9.71,5.02,21.9,3.13,30.45,11.22,.57,.54,1.25,.97,2.05,1.58Z"/><path d="M482.67,332.61c-3.03,8.01-6.6,15.61-13.56,20.94-6.42,4.92-13.66,5.69-21.49,3.78,5.2-1.33,7.71-5.88,11.42-8.97,2.67-2.23,5.87-4.19,9.16-5.2,6.15-1.89,11.31-4.69,14.46-10.55Z"/><path d="M568.5,239.77c11.71-1.02,23.72-3.14,31.24,9.52-6.1,3.71-15.93,3.17-21.71-1.37-3.24-2.54-6.27-5.35-9.52-8.15Z"/><path d="M546.69,373.55c-2.84-5.44-4.47-10.83-5.17-16.6-.62-5.14-1.7-10.23-2.55-15.2,5.81,3.85,12.51,7.77,14.11,16.16,1.21,6.36-1.79,11.2-6.39,15.63Z"/><path d="M498.38,318.61c7.91,10.03,4.16,21.88-8.64,27.63,0-5.23-.31-10.46,.08-15.65,.41-5.44,3.79-9.19,8.55-11.98Z"/><path d="M469.74,203.56c13.52,5.93,17.32,15.68,9.73,29.4-7.96-8.16-8.29-19.01-9.73-29.4Z"/><path d="M513,329.62c1.11,5.99,2.12,12.46,.08,18.98-1.47,4.7-5.13,6.96-9.62,7.77-3.25,.58-6.61,.5-10.67,.76,10.02-7.71,14.24-18.33,20.21-27.51Z"/><path d="M576.21,275.63c4.56-12.4,12.41-20.27,26.13-20.35-3.09,4.25-6.02,8.55-9.23,12.64-4.31,5.48-10.58,6.72-16.89,7.72Z"/><path d="M225.87,298.92c-3.39,3.41-7.35,5.15-11.92,4.53-5.24-.71-10.42-1.9-15.72-2.91,8.99-11.27,20.81-11.99,27.65-1.62Z"/><path d="M568.61,361.12c13.98,4.8,17.95,9.81,17.3,22.91-5.23-1.24-10.66-2.63-13.06-7.69-2.14-4.5-2.78-9.72-4.23-15.22Z"/><path d="M507.02,290.71c3.02-.52,6-1.27,9.02-1.5,8.63-.66,12.59,5.93,13.97,12.21,.12,.56-.96,1.79-1.72,2.08-4.81,1.86-10.41,.28-13.99-3.88-2.38-2.77-4.62-5.65-7.29-8.92Z"/><path d="M303.75,129.7c12.49-5.16,21.74-1.78,31.67,11.36-5.36-.72-11.07-1.14-16.59-2.38-2.96-.67-5.68-2.62-8.36-4.23-2.35-1.41-4.5-3.16-6.72-4.74Z"/><path d="M576.87,400.41c-10.16-3.1-17.23-9.03-18.38-20.29,9.25-3.05,17.75,6.25,18.38,20.29Z"/><path d="M503.38,386.46c.62-3.06,1.1-6.07,1.85-9,1.22-4.75,4.25-7.82,8.86-9.65,3.51-1.39,6.8-3.33,9.73-4.8-.16,12.55-9.58,18.44-20.45,23.45Z"/><path d="M562.09,200.95c11.15-3.55,18.4-1.16,24.67,8.14-6.37,4.83-17.43,5.46-24.67-8.14Z"/><path d="M327.45,255.41c-3.8,6.96-9.38,9.97-17.23,8.89-2.88-.4-5.85-.06-8.96-.06,5.37-11.26,12.65-13.64,26.19-8.83Z"/><path d="M560.06,305.62c4.62,1.55,8.68,3.64,11.57,7.48,3.07,4.08,2.73,9.93-.51,14.05-1.03,1.31-1.97,1.33-3.24,.49-3.66-2.41-6.05-5.7-6.65-10.05-.53-3.89-.78-7.81-1.17-11.97Z"/><path d="M345.16,359.78c-5.93-2.24-10.61-5.56-13.46-10.97-2.43-4.6-4.58-9.34-6.83-13.96,13.88,6.81,18.89,7.96,20.29,24.93Z"/><path d="M192.56,255.86c3.23,1.35,6.53,2.88,9.93,4.14,6.33,2.34,9.2,6.32,9.43,13.41-11.46,3.33-18.89-7.16-19.35-17.55Z"/><path d="M330.69,163.06c2.76,12.15,.09,19.26-8.81,23.58-2.15-3.5-3.01-7.29-2.62-11.36,.32-3.29,2.04-5.74,4.67-7.59,2.18-1.54,4.4-3.01,6.76-4.63Z"/><path d="M338.82,229.71c-12.14-1.59-21.47-7.77-24.67-21.47,6.53,2.8,13.74,4.27,17.75,11.34,2.12,3.73,4.84,7.12,6.92,10.13Z"/><path d="M292.59,257.79c-1.11-9.59,2.76-17.5,8.69-24.48,7.84,11.54,4.85,20.21-8.69,24.48Z"/><path d="M559.45,297.4c-3.03-10.77,5.13-19.25,16.96-18.11-1.24,2.71-2.71,5.41-3.73,8.28-2.53,7.1-5.2,9.22-13.23,9.84Z"/><path d="M537.13,371.48c7.94,9.33,6.77,18.57-2.91,24.87-5.43-6.78-4.41-15.62,2.91-24.87Z"/><path d="M242.82,269.07c5.2-5.31,10.89-6.22,17.03-2.75,2.66,1.51,5.21,3.2,7.78,4.8-8.7,7.76-16.28,6.35-24.81-2.05Z"/><path d="M329.77,246.82c7.99-3.33,13.65-10.16,21.87-12.65,1.2,5.8-1.16,11.89-5.51,14.59-4.67,2.91-10.82,2.26-16.37-1.95Z"/><path d="M298.71,336.97c7.34,6.3,10.81,13.54,6.74,22.94-12.1-6.44-13.86-12.37-6.74-22.94Z"/><path d="M501.19,217.09c-1.6-6.37-4.02-12.57-3.17-19.33,.39-3.1,1.95-5.55,4.69-6.76,3.09-1.36,6.44-2.12,10.01-3.25-3.71,10.37-11.02,18.46-11.52,29.33Z"/><path d="M332.55,230.45c-1.88,5.72-5.05,9.7-10.81,11.58-3.69,1.21-7.13,3.15-10.41,4.64,.22-11.18,8.09-18.58,21.22-16.22Z"/><path d="M262.79,349.7c-4.53,6.9-9,13.71-13.41,20.42-3.82-3.56-5.18-9.22-2.92-13.97,2.34-4.94,9.06-7.55,16.33-6.45Z"/><path d="M336.5,375.99c-5.38,3.16-11.08,1.81-15.69-3.49-1.93-2.22-4.02-4.31-5.98-6.39,7.68-4.26,18.8-2.3,21.67,9.88Z"/><path d="M548.02,177.87c-.35,7.61-5.31,13.97-12.51,15.65-.76,.18-1.62,.43-2.33,.26-1.85-.44-3.65-1.1-5.47-1.68,.82-2.04,1.14-4.61,2.6-5.99,1.92-1.82,4.67-2.84,7.17-3.96,3.46-1.55,7.02-2.87,10.54-4.29Z"/><path d="M519.24,159.87c-9.57-5.04-16.32-11.92-13.74-23.82,8.8,5.43,15,12.62,13.74,23.82Z"/><path d="M345.25,391.85c-9.79,6.42-18.99,3.9-23.45-6.5,9.85-5.57,16.12,2.05,23.45,6.5Z"/><path d="M298.3,133.39c6.82,6.1,14.8,11.25,15.32,21.46-10.56,.69-18.3-9.81-15.32-21.46Z"/><path d="M456.77,263.05c5.67-7.13,13.92-7.9,19.77-2.4,1.43,1.34,1.39,2.28,.14,3.68-3.39,3.8-8.73,4.98-13.81,2.62-2.11-.98-3.96-2.51-6.11-3.9Z"/><path d="M281.87,377.28c11.07,4.21,15,10.36,12.46,19.27-8.43-.75-11.48-5.42-12.46-19.27Z"/><path d="M270.26,235.05c-5.39-11.15-4.52-17.03,3.26-23.46,4.08,3.7,5.19,8.93,2.62,13.84-1.68,3.21-3.77,6.2-5.88,9.62Z"/><path d="M224.8,246.02c8.14,8.4,8.71,14.97,2.14,22.68-7.12-6.31-7.82-13.43-2.14-22.68Z"/><path d="M224.48,386.35c-6.89-6.7-8.53-15.12,2.85-22.59,3.69,6.13,2.69,14.32-2.85,22.59Z"/><path d="M551.86,259.56c3.97,.3,8.26,1.4,11.62,4.87,3.42,3.53,4.02,7.83,1.45,11.87-.59,.93-2.04,2.14-2.78,1.96-1.54-.38-3.42-1.29-4.17-2.57-1.06-1.79-1.04-4.18-1.81-6.19-1.32-3.42-2.91-6.75-4.31-9.94Z"/><path d="M558.07,250c2.36-.31,4.3-.72,6.26-.81,7.2-.34,11.68,3.68,12.26,10.79,.13,1.6-.32,2.34-2.05,2.47-4.2,.32-7.61-1.08-10.22-4.32-2.04-2.52-3.96-5.14-6.25-8.13Z"/><path d="M521.92,165.6c1.86-6.89,4.63-13.18,10.61-17.55,3.12,3.35,4.1,8.15,2.41,11.68-1.96,4.08-6.96,6.36-13.02,5.87Z"/><path d="M446.45,109.71c13.07,5.16,14.97,11.84,12.87,24.74-5.98-7.28-10.7-15.59-12.87-24.74Z"/><path d="M518.26,198.17c2.78,1.2,5.59,2.34,8.33,3.63,4.21,1.97,5.39,5.8,5.71,10,.04,.5-.77,1.46-1.29,1.54-3.8,.58-8.05,.81-10.27-3.77-1.66-3.42-2.28-7.35-3.37-11.05l.89-.34Z"/><path d="M541.75,239.17c-1.52,2.53-2.6,4.76-4.08,6.69-3.03,3.96-8.86,5.39-13.1,3.26-.68-.34-1.4-1.66-1.28-2.39,.73-4.49,4.3-7.44,8.94-7.55,2.97-.07,5.95-.01,9.52-.01Z"/><path d="M285.22,138.03c8.35,7.09,9.03,14.04,2.11,19.93-7.02-5.62-7.58-10.55-2.11-19.93Z"/><path d="M433.06,252.77c-.67-6.16,1.76-10.27,7.18-12.81,2.03-.95,3.83-2.37,5.69-3.54,3.33,9.76-1.98,15.76-12.87,16.35Z"/><path d="M275.71,303.81c-9.46,1.72-13.21-.71-17.5-11.18,9.85-1.7,15.16,1.63,17.5,11.18Z"/><path d="M457.96,229.49c-8.66,2.66-14.64-2.41-16.1-13.36,10.81,1.47,13.88,4.78,16.1,13.36Z"/><path d="M496.8,148.58c5.14,3.84,6.15,9.56,2.47,14.69-1.48,2.07-3.18,3.97-4.82,6-4.66-8.22-3.74-15.96,2.35-20.69Z"/><path d="M275.69,278.7c-.66,4-2.72,7.56-7.05,9.31-3.5,1.41-7.05,1.18-10.05-1.34-.77-.65-1.6-2.22-1.32-2.96,.66-1.74,.83-4.04,3.85-4.06,4.78-.04,9.56-.59,14.56-.94Z"/><path d="M188.94,290.79c.2-8.15,7.53-12.61,17.62-10.72-5.4,10.44-8.47,12.31-17.62,10.72Z"/><path d="M203.41,331.46c.25,3.66,.6,6.88,.66,10.12,.11,6.21-2.82,9.76-9.05,10.84-2.46,.42-5.01,.31-8.26,.48,6.63-6.96,14.09-12.08,16.65-21.43Z"/><path d="M470.32,239.28c-.19,4.75-2.55,7.55-6.68,9.45-3.17,1.46-5.99,3.69-8.91,5.54-1.82-10.26,4.75-16.72,15.59-14.99Z"/><path d="M262.6,209.6c-6.7,8.81-11.05,10.32-18.9,6.71,.71-7.6,8.1-10.28,18.9-6.71Z"/><path d="M573.58,299.53c9.63-1.91,15.62,2.89,14.92,11.95-8.91,2.11-12.82-3.77-14.92-11.95Z"/><path d="M367.14,263.46c-.5-1.01-.77-2.24-1.52-2.99-7.48-7.43-7.82-8.61-4.81-19.21,1.34,1.23,2.55,2.48,3.9,3.56,3.84,3.08,4.63,7.15,3.85,11.71-.4,2.32-.94,4.62-1.43,6.94,0,0,0,0,0,0Z"/><path d="M389.34,133.73c6.62-4.03,11.63-2.66,18.35,5.03-8.69,5.23-14.96,3.51-18.35-5.03Z"/><path d="M321.4,402.62c-6.98-4.88-15.52-7.63-19.28-15.91,9.55-1.81,17.54,4.59,19.28,15.91Z"/><path d="M476.26,118.81c2.32,8.2-2.3,14.56-10.85,15.24-1.02-8.96,2.6-14.12,10.85-15.24Z"/><path d="M390.78,110.9c-6.52,4.87-12.57,9.4-18.69,13.97-.88-13.08,7.8-17.12,18.69-13.97Z"/><path d="M226.76,234.9c-12.5-.14-17.59-6.18-16.23-19.21,5.45,6.45,10.72,12.7,16.23,19.21Z"/><path d="M525.01,276.41c.1-7.83,6.29-11.88,14.91-9.89-.64,8.17-5.23,11.64-14.91,9.89Z"/><path d="M286.61,210.66c4.02-2.1,8.45-3.54,13.1-1.2,5.19,2.61,6.05,7.61,6.42,12.34-6.41-3.66-12.95-7.39-19.53-11.14Z"/><path d="M384.57,271.4c3.63,8.52,.6,14.49-7.87,15.84-3.46-6.45-1.28-10.9,7.87-15.84Z"/><path d="M410.83,172.72c8.02-1.24,9.41-.58,16.82,7.85-6.86,5.32-15.55,1.36-16.82-7.85Z"/><path d="M418.44,133.62c-2.75-.92-5.77-2.2-8.92-2.93-4.98-1.17-7.7-2.84-10.06-6.91,8.78-4.65,17.36,.11,18.98,9.84Z"/><path d="M433.58,113.76c1.45,1.98,2.87,4.05,4.44,6.01,2.88,3.59,3.4,7.41,1.52,11.58-9.23-1.1-11.9-9.38-5.96-17.59Z"/><path d="M390.52,164.42q-7.16-9.35-5.88-17.88c9.38,3.16,12.35,10.49,5.88,17.88Z"/><path d="M228.4,317.53c7.52,7.18,8.16,11.76,2.64,18.01-6.72-4.27-7.53-9.53-2.64-18.01Z"/><path d="M360.46,274.53c-7.44-3.23-8.41-5.32-7.72-16.56,8.69,2.17,12.29,9.89,7.72,16.56Z"/><path d="M529.83,194.51c3.9,1.04,7.45,2.23,11.09,2.87,3.66,.64,7.42,.73,11.33,1.07-.31,2.91-2.48,4.45-5.06,5.53-3.55,1.48-7.01,1.16-10.01-1.32-1.43-1.18-2.55-2.74-3.8-4.13-1.11-1.25-2.21-2.51-3.53-4.02Z"/><path d="M474.97,252.82c.32-9.23,7.53-14.95,15.87-12.63-3.32,6.61-7.68,12.17-15.87,12.63Z"/><path d="M278.26,239.95c-1.56,7.4-5.99,12.15-14.86,9.01,.23-5.48,2.98-10.52,14.86-9.01Z"/><path d="M277.72,289.46c2.34-3.96,6.46-6.1,10.49-5.56,4.24,.56,8.24,4.45,9.71,9.2-6.55-1.18-13.27-2.39-20.2-3.64Z"/><path d="M552.95,227.8c-1.66-4.7,.14-10.98,3.87-13.53,2.36-1.61,3.59-1.3,4.82,1.31,2.48,5.26-.76,11.71-8.69,12.22Z"/><path d="M364.16,522.94c-13.46-2.62-27.51-3.6-38.3-14.19,.44-.06,.75-.21,.91-.11,7.45,4.6,15.85,6.33,24.22,8.3,4.61,1.09,9.01,3.09,13.51,4.67l-.33,1.32Z"/><path d="M278.28,311.64c-.48-10.13,3.7-14.55,13.04-13.92-1.16,7.5-6.03,11.58-13.04,13.92Z"/><path d="M480.53,162.17c7.27,5.19,8.24,10.59,3.06,16.09-7.17-3.21-8-7.4-3.06-16.09Z"/><path d="M300.19,160.37c-1.56,8.69-3.8,10.62-12.63,11.14-1.85-7.21,2.5-11.1,12.63-11.14Z"/><path d="M522.52,181.06c-.1-6.62,1.9-8.77,10.85-11.64,2.58,8.33-2.65,13.35-10.85,11.64Z"/><path d="M355.13,147.37c-4.36-5.14-3.46-10.51-1.63-16.04,9.06,4.82,9.69,10.8,1.63,16.04Z"/><path d="M331.32,116.48c9.23,4.77,11.12,7.71,9.13,13.93-7.89-1.05-11.55-6.53-9.13-13.93Z"/><path d="M275.1,176.81c-6.56,3.97-7.75,10.38-9.67,16.38-3.16-1.74-4.57-6.17-3.41-10.16,1.35-4.63,5.71-6.86,13.08-6.22Z"/><path d="M303.04,166.08c1.38,2.49,2.56,4.41,3.53,6.43,1.35,2.83,2.81,5.65,3.7,8.63,.8,2.65-.52,3.59-3.26,2.78-3.35-.98-5.59-4.32-5.35-8.65,.17-3.02,.88-6.01,1.38-9.2Z"/><path d="M446.04,148c-4.18-6.34-3.02-11.7,2.66-13.92,1.92-.75,2.82-.17,3.28,1.57,.86,3.27,.58,6.28-2.11,8.72-1.24,1.12-2.43,2.29-3.83,3.63Z"/><path d="M259.95,225.29c3.4,5.68,2.46,8.25-5.61,15.82-2.7-6.75-.27-13.78,5.61-15.82Z"/><path d="M331.29,262.94c8.47-.6,12.27,2.7,11.52,9.83-6.76,.76-9.94-1.91-11.52-9.83Z"/><path d="M320.03,511.91c-7.18-6.11-15-11.02-23.99-13.95-1.88-.61-3.78-1.18-5.58-1.99-1.37-.61-2.59-1.56-3.63-2.77,13.28,2.34,24.96,7.5,33.2,18.71Z"/><path d="M498.72,254.74c-6.24-3.27-6.06-8.66-5.48-14.47,3.22,.62,5.88,2.12,7.24,5.18,1.45,3.27,.5,6.31-1.76,9.29Z"/><path d="M246.85,189.97c-7.04-.53-9.09-2.98-9.49-11.35,6.92-.8,10.81,3.85,9.49,11.35Z"/><path d="M549.72,229.33c4.04,3.88,5.28,8.41,3.6,12.45-1.41,3.4-4.47,5.11-9.25,4.98,5.04-4.83,4.5-11.33,5.65-17.43Z"/><path d="M464.61,217.94c-7.33,1.07-11.2-2.25-11.13-9.36,7.55-.26,11.16,2.71,11.13,9.36Z"/><path d="M272.36,198.4c.58-3.45,.87-6.98,1.81-10.32,.94-3.34,3.68-4.99,7.05-5.64,1.58-.3,2.58,.41,2.17,1.82-.57,1.99-1.18,4.71-2.66,5.56-3.67,2.11-6.76,4.34-7.35,9.05l-1.01-.48Z"/><path d="M512.53,209.39c3.64,5.44,2.43,9.97-2.98,12.12-1.74,.69-2.52,.18-3.1-1.43-1.61-4.48,.08-7.57,6.08-10.69Z"/><path d="M522.04,229.4c3.1-2.5,6.53-3.35,10.33-3.44,1.83-.05,3.63-1.06,5.29-1.59-1.36,8.77-7.61,10.98-15.62,5.03Z"/><path d="M282.45,231.36c-.95-6.36,2.18-9.38,9.59-9.41,1.36,5.96-2.83,10.19-9.59,9.41Z"/><path d="M505.34,160.98c3.4,2.31,7.85,2.6,8.38,7.27,.17,1.48-.26,3.83-1.23,4.4-1.01,.59-3.28-.07-4.5-.91-3.74-2.57-2.82-6.49-2.64-10.76Z"/><path d="M442.64,273.1c-3.62-5.47-2.08-9.87,4.33-12.8,3.6,5.04,1.99,9.98-4.33,12.8Z"/><path d="M339.75,150.77c1.85,2.02,3.46,3.49,4.69,5.22,1.76,2.47,1.14,5.11-.34,7.47-.34,.54-1.86,.9-2.48,.6-3.1-1.5-4.38-4.54-3.52-7.87,.42-1.61,.96-3.19,1.64-5.41Z"/><path d="M248.01,296.42c-2.82-9.72-1.62-14.81,4.44-18.88,2.32,7.17-2.62,12.58-4.44,18.88Z"/><path d="M200.37,314.94c-3.72,2.9-7.6,5.4-12.47,3.45-3.95-1.58-5.31-5.17-6.48-9.3,5.92,4.3,11.67,7.53,18.95,5.85Z"/><path d="M483.29,256.51c7.85-.31,10.58,1.01,12.28,5.88-4.96,4.06-10.25,1.61-12.28-5.88Z"/><path d="M224.62,216.01c7.47,3.14,9.45,6.63,7.35,12.62-6.4-2.47-7.78-4.79-7.35-12.62Z"/><path d="M435.68,272.81c-1.01-2.22-2.13-4.4-3-6.67-2.52-6.57,1.31-11.67,9.12-11.32-6.18,4.88-6.54,11.27-6.12,17.99Z"/><path d="M409.56,142.79c.4,2,.86,3.98,1.18,5.99,.1,.65,.08,1.63-.31,2-1.42,1.34-2.94,2.65-4.62,3.62-.53,.31-2.42-.42-2.45-.77-.15-1.86-.47-4.07,.35-5.57,1.18-2.17,3.27-3.84,4.98-5.72l.87,.44Z"/><path d="M473.01,145.48c5.87,3.29,7.17,6.2,5.46,11.86-6.15-.3-8.77-5.78-5.46-11.86Z"/><path d="M423.89,189.5c-2.9,6.68-6.38,7.91-12.05,4.44,1.83-5.7,5.13-6.95,12.05-4.44Z"/><path d="M470.36,225.46c1.17,7.16-1.19,10.08-7.84,9.86-.81-6.02,1.43-8.91,7.84-9.86Z"/><path d="M379.01,256.41c3.67,4.66,3.56,7.71-.06,11.01-1.47,1.34-2.36,.91-3.34-.46-2.5-3.5-1.37-7.2,3.4-10.55Z"/><path d="M486.71,151.37c-4.74-3.2-5.05-6.72-1.08-11.97,5.45,3.35,5.88,8.15,1.08,11.97Z"/><path d="M366.45,144.4c1.93,4.81,1.21,7.72-2.27,9.64-2.19,1.21-3.21,.75-3.74-1.72-.79-3.73,.93-6.07,6-7.93Z"/><path d="M436.46,227.34c2.05,4.19,.94,7.8-2.78,9.42-1.73,.76-2.52,.23-3.01-1.48-1.1-3.87,.77-6.49,5.79-7.94Z"/><path d="M422.84,150.04c5.37-2.91,8.79-2.08,11.25,2.6-5.06,3.12-7.4,2.61-11.25-2.6Z"/><path d="M465.73,172.9c1.44,1.1,3.21,1.9,4.1,3.28,.89,1.39,1.25,3.35,1.2,5.05-.04,1.54-1.31,1.95-2.84,1.22-3.34-1.59-4.22-4.69-2.46-9.56Z"/><path d="M451.18,520.16c-7.99,1.2-15.29-.81-21.82-5.15,7.16,1.69,14.49,3.42,21.82,5.15Z"/><path d="M266.36,477.94c-6.98-1.56-13.2-5.54-17.8-12.07,6.11,4.14,12.23,8.29,17.8,12.07Z"/><path d="M469.31,164.75c-7.07,4.99-8.19,7.41-7.76,16.42-4.56-6.81,.25-15.68,7.76-16.42Z"/><path d="M334.08,507.52c-4.32-1.2-8.74-3.52-9.88-8.62,3.19,2.79,6.83,5.96,9.88,8.62Z"/><path d="M390.19,206.05c.96,2.67,2.05,5.03,2.63,7.51,1.21,5.12-1.57,10.02-6.42,12.04-1.51,.63-2.28,.48-2.93-1.16-1.75-4.48-1.16-8.54,1.8-12.28,1.54-1.93,3.09-3.85,4.91-6.11Z"/><path d="M368.3,200.33c-1.71,4.11-3.37,8.19-5.12,12.22-.42,.97-1.02,1.97-1.8,2.66-1.85,1.63-3.74,1.06-4.61-1.24-2.34-6.17,1.97-12.41,9.37-13.52,.83-.12,1.69-.09,2.15-.11Z"/><path d="M345.99,182.14c.38,7.51-3.23,11.65-10.26,11.77-2.4-7.4-.05-10.08,10.26-11.77Z"/><path d="M387.42,197.65c-6.1,4.83-11.7,2.28-17.2-1.01,4.27-4.83,10.56-4.51,17.2,1.01Z"/><path d="M378.04,208.71c.89,6.06-.83,9.58-4.96,10.54-2.94,.68-3.72,0-3.8-3.07-.09-3.16,1.63-4.95,4.33-6.02,1.36-.54,2.79-.92,4.43-1.45Z"/></svg>